<svg id="Layer_1" data-name="Layer 1" xmlns="http://www.w3.org/2000/svg" viewBox="0 0 333.56 83.74"><defs><style>.cls-1{fill:#1d1d1b;}</style></defs><path class="cls-1" d="M169.35,470.47c0-8,2.46-15.73,4.33-23.47a89.2,89.2,0,0,0,2.11-12c.21-2.07.36-4.15.55-6.22.1-1.12.21-2.23.35-3.34.06-.42.12-.83.19-1.24s.1-.63.16-1,.07-.37-.06.07l-1.11.65c1.54-.64,3.29-1,4.88-1.47a20.69,20.69,0,0,1,4.66-1,8,8,0,0,1,3.84.56,4,4,0,0,1,1.32.93.83.83,0,0,1,.21.28c.11.22.13.22.05,0,.13-.41-.57.46-.43.3a23.59,23.59,0,0,1-15.19,7.58,2.56,2.56,0,0,0-2.5,2.5,2.52,2.52,0,0,0,2.5,2.5,182.16,182.16,0,0,1,21.91-.84,68,68,0,0,1,10.55,1.19,53,53,0,0,1,5.25,1.31,16.44,16.44,0,0,1,4.45,1.75c1.23.82,1.61,2.29,2,3.65a11.12,11.12,0,0,1,.6,5.14c-.59,3-3.24,5.1-5.83,6.45-6.14,3.22-13.46,4.67-20.3,5.31a121.6,121.6,0,0,1-24.5-.58,2.52,2.52,0,0,0-2.5,2.5,2.55,2.55,0,0,0,2.5,2.5,122.36,122.36,0,0,0,23.82.63c7.94-.67,16.17-2.29,23.31-5.94a15.92,15.92,0,0,0,7.73-7.77c1.63-3.89.69-8.46-.94-12.22s-5.3-5.11-9-6.24a62.79,62.79,0,0,0-11.92-2.31c-9-.94-18.11-.24-27.11.47v5a29.19,29.19,0,0,0,16.9-7.24,15.67,15.67,0,0,0,3-3.25,4.78,4.78,0,0,0-.35-5.41c-1.94-2.68-5.4-3.78-8.59-3.78s-6.43,1.22-9.58,2.12c-1.76.5-3.57.87-4.23,2.82a26.67,26.67,0,0,0-.83,5.5c-.38,3.44-.52,6.9-1,10.33a93,93,0,0,1-2.12,10.29c-1.9,7.56-4.07,15.15-4.07,23,0,3.22,5,3.22,5,0Z" transform="translate(-101.4 -390.33)"/><path class="cls-1" d="M228.81,432.18l.16,28.94c0,3.21,5,3.22,5,0l-.16-28.94c0-3.22-5-3.23-5,0Z" transform="translate(-101.4 -390.33)"/><path class="cls-1" d="M227.65,419.5c3.21,0,3.22-5,0-5s-3.23,5,0,5Z" transform="translate(-101.4 -390.33)"/><path class="cls-1" d="M240.69,421q19.65-1.92,39.37-2.78c3.2-.14,3.22-5.14,0-5q-19.72.87-39.37,2.78a2.57,2.57,0,0,0-2.5,2.5,2.52,2.52,0,0,0,2.5,2.5Z" transform="translate(-101.4 -390.33)"/><path class="cls-1" d="M252.79,419.65q-1.28,21.6-.58,43.24c.1,3.21,5.11,3.22,5,0q-.69-21.63.58-43.24c.19-3.21-4.81-3.2-5,0Z" transform="translate(-101.4 -390.33)"/><path class="cls-1" d="M296.29,430.5c-11.08,1-24.63-.08-32.6,9.38a19.53,19.53,0,0,0-4,7.87,23.39,23.39,0,0,0-.87,9.14c1,6.3,8.7,7.56,13.92,8.12,7.25.77,14.56-.47,21.7-1.66a2.52,2.52,0,0,0,1.74-3.08,2.55,2.55,0,0,0-3.07-1.74,92.49,92.49,0,0,1-16.42,1.7,34.67,34.67,0,0,1-7.86-.92c-1.59-.39-4.18-.89-4.92-2.61a6.26,6.26,0,0,1-.17-3.07,30.15,30.15,0,0,1,.62-3.9,14.89,14.89,0,0,1,2.74-6.17c2.68-3.36,6.77-5.27,10.85-6.3,6-1.5,12.23-1.22,18.33-1.76a2.57,2.57,0,0,0,2.5-2.5,2.52,2.52,0,0,0-2.5-2.5Z" transform="translate(-101.4 -390.33)"/><path class="cls-1" d="M305.36,414.2a356.8,356.8,0,0,0,.16,53.82,2.55,2.55,0,0,0,2.5,2.5,2.52,2.52,0,0,0,2.5-2.5,356.8,356.8,0,0,1-.16-53.82,2.5,2.5,0,1,0-5,0Z" transform="translate(-101.4 -390.33)"/><path class="cls-1" d="M320.17,468.35a233.73,233.73,0,0,1-.56-28c.12-4.49.14-9,.56-13.5.44-4.68,1.49-9.18.62-13.88a2.5,2.5,0,1,0-4.82,1.33c.79,4.29-.47,8.75-.84,13-.39,4.49-.42,9-.54,13.52a229.73,229.73,0,0,0,.58,27.52,2.57,2.57,0,0,0,2.5,2.5,2.52,2.52,0,0,0,2.5-2.5Z" transform="translate(-101.4 -390.33)"/><path class="cls-1" d="M308.1,444.85a42.91,42.91,0,0,0,8.69-.64,2.53,2.53,0,0,0,1.75-3.08,2.56,2.56,0,0,0-3.08-1.74c-.51.1-1,.19-1.53.26l.67-.09a50.42,50.42,0,0,1-6.5.29,2.52,2.52,0,0,0-2.5,2.5,2.55,2.55,0,0,0,2.5,2.5Z" transform="translate(-101.4 -390.33)"/><path class="cls-1" d="M331.34,466.76q-.69-28.2.19-56.42l-3.76,2.16c3.85,1.73,7.52-.19,11.46-.38,2.38-.12,6.14-.17,7.79,2s-.68,5.86-1.94,7.75a21.41,21.41,0,0,1-15.54,9.22,2.5,2.5,0,0,0,0,5c8.3.82,18.17,2.59,23.11,10.14a13.35,13.35,0,0,1,1.47,11.88,12.89,12.89,0,0,1-8.08,7.78,20.51,20.51,0,0,1-8,.62,36,36,0,0,1-3.88-.47,6.8,6.8,0,0,1-1.12-.28c-.19-.08-.55-.51-.45-.22a2.56,2.56,0,0,0-3.08-1.74,2.51,2.51,0,0,0-1.74,3.07c.92,2.62,3.26,3.74,5.86,4.12a41.28,41.28,0,0,0,9.08.58,18.69,18.69,0,0,0,14.18-7.95,17.9,17.9,0,0,0,2-16.16A22.57,22.57,0,0,0,348.58,436c-5.81-3.28-12.5-4.28-19-4.93v5a26.6,26.6,0,0,0,19.11-10.65c2.34-3.12,4.46-7.24,3.74-11.25s-4.48-6.14-8.1-6.76a24.2,24.2,0,0,0-7.16-.1c-1.35.18-2.66.47-4,.76a4.92,4.92,0,0,1-2.84.11,2.55,2.55,0,0,0-3.77,2.16q-.87,28.2-.19,56.42c.08,3.21,5.08,3.22,5,0Z" transform="translate(-101.4 -390.33)"/><path class="cls-1" d="M376.63,425c-6.71,6.69-10.82,16.19-9.73,25.75,1,8.87,6.53,19.22,16.12,20.91,8.82,1.55,17.55-3.76,21.07-11.81,3.67-8.4,2.67-18.61-1.93-26.46a22.5,22.5,0,0,0-11.35-9.9,18,18,0,0,0-15.07,1c-2.8,1.59-.28,5.92,2.52,4.32,6.44-3.65,14.44-.34,18.44,5.35a25.35,25.35,0,0,1,3.74,21.21c-1.88,6.5-7.5,11.68-14.5,11.6-7.68-.09-12.41-7.91-13.78-14.65-1.76-8.73,1.84-17.61,8-23.76,2.28-2.28-1.26-5.81-3.54-3.54Z" transform="translate(-101.4 -390.33)"/><path class="cls-1" d="M400.62,408.82a134.92,134.92,0,0,1,14.47,23.31c.89,1.82,3.34,1.41,4.32,0l15.2-21.91a2.5,2.5,0,0,0-4.32-2.53l-15.2,21.91h4.32a135.3,135.3,0,0,0-14.47-23.31,2.59,2.59,0,0,0-3.42-.9,2.53,2.53,0,0,0-.9,3.43Z" transform="translate(-101.4 -390.33)"/><path class="cls-1" d="M414.05,429.88l-.36,39.89c0,3.21,5,3.22,5,0l.36-39.89c0-3.22-5-3.22-5,0Z" transform="translate(-101.4 -390.33)"/><path class="cls-1" d="M120.7,421.38c-1.2.13-2.4.24-3.61.3a20.69,20.69,0,0,1-3.43.06l.66.09a1.6,1.6,0,0,1-.43-.11l.59.25a2.09,2.09,0,0,1-.28-.17l.51.39a1,1,0,0,1-.14-.15l.39.5a1,1,0,0,1-.1-.17l.26.6a.82.82,0,0,1-.06-.19l.09.66a2.91,2.91,0,0,1,0-.3l-.09.67a2.22,2.22,0,0,1,.11-.39l-.25.59.16-.26-.39.51a1.65,1.65,0,0,1,.24-.22l-.51.39.3-.16-.6.25a2.28,2.28,0,0,1,.45-.11l-.67.09a2.81,2.81,0,0,1,.58,0l-.66-.09a2.88,2.88,0,0,1,.7.18l-.6-.25a3.53,3.53,0,0,1,.59.35l-.51-.4a3.76,3.76,0,0,1,.63.63l-.39-.51a4.6,4.6,0,0,1,.44.78l-.26-.6a3.64,3.64,0,0,1,.23.86l-.09-.67a3,3,0,0,1,0,.79l.09-.67a2.48,2.48,0,0,1-.18.66l.25-.59a1.79,1.79,0,0,1-.22.38l.39-.5-.09.08.51-.39-.09.06.6-.25a.9.9,0,0,1-.22.06l.66-.09h-.11l.66.09a.83.83,0,0,1-.22-.08l.6.26-.17-.1.51.39a1.31,1.31,0,0,1-.21-.2l.39.51a2.23,2.23,0,0,1-.2-.33l.26.6a1.66,1.66,0,0,1-.11-.38l.09.67a2.09,2.09,0,0,1,0-.5l-.09.67a1.72,1.72,0,0,1,.1-.39l-.25.6a2.16,2.16,0,0,1,.29-.51l-.4.5a4.18,4.18,0,0,1,.6-.59l-.51.39a5.67,5.67,0,0,1,1.09-.64l-.6.25a3.14,3.14,0,0,1,.78-.22l-.66.09a1.7,1.7,0,0,1,.39,0l-.66-.09a1.77,1.77,0,0,1,.44.11l-.6-.25a1.65,1.65,0,0,1,.32.18l-.5-.39.26.26-.39-.5a2.18,2.18,0,0,1,.29.49l-.25-.6a4.05,4.05,0,0,1,.12.47l-.09-.67a2,2,0,0,1,0,.59l.09-.67a2,2,0,0,1-.12.47l.25-.6a2.6,2.6,0,0,1-.28.45l.39-.5a2.73,2.73,0,0,1-.38.38l.51-.39a2.9,2.9,0,0,1-.66.38l.59-.25a3.19,3.19,0,0,1-.75.2l.67-.09a3.62,3.62,0,0,1-.93,0l.67.09a4.83,4.83,0,0,1-1.14-.33l.59.25a7.7,7.7,0,0,1-1.48-.9l.51.39a4.45,4.45,0,0,1-.71-.66l.39.5a2.23,2.23,0,0,1-.24-.4l.25.6a2,2,0,0,1-.12-.42l.09.67c0-.11,0-.21,0-.32l-.09.67a1.47,1.47,0,0,1,.08-.3l-.25.59a1,1,0,0,1,.16-.25l-.39.5a.86.86,0,0,1,.14-.13l-.5.39a.78.78,0,0,1,.2-.11l-.59.25a.7.7,0,0,1,.25-.05l-.67.08c.55,0,1.11.07,1.66,0a10.8,10.8,0,0,1,1.61,0l-.66-.09a3.31,3.31,0,0,1,.69.17l-.6-.25a2.58,2.58,0,0,1,.51.29l-.51-.39a2.11,2.11,0,0,1,.39.4l-.39-.51a3.52,3.52,0,0,1,.39.68l-.25-.59a5.51,5.51,0,0,1,.33,1.33l-.09-.67a3.25,3.25,0,0,1,0,.88l.09-.66a2.08,2.08,0,0,1-.11.41l.25-.6a1.43,1.43,0,0,1-.15.27l.39-.5-.22.22.51-.39c-.09.05-.16.1-.25.14l.59-.25a1.18,1.18,0,0,1-.27.06l.67-.09h-.29l.67.08a2,2,0,0,1-.48-.12l.6.25a2.65,2.65,0,0,1-.54-.32l.5.39a2.59,2.59,0,0,1-.37-.37l.39.5a3.16,3.16,0,0,1-.35-.59l.25.59a4.39,4.39,0,0,1-.26-1l.09.67a4.83,4.83,0,0,1,0-1.14l-.09.66a5.44,5.44,0,0,1,.38-1.35l-.25.6a5.19,5.19,0,0,1,.54-.94l-.39.51a3.3,3.3,0,0,1,.48-.51l-.5.4a2.71,2.71,0,0,1,.49-.31l-.6.26a2.27,2.27,0,0,1,.51-.14l-.66.09a2,2,0,0,1,.42,0l-.67-.09a1.8,1.8,0,0,1,.4.1l-.6-.25.27.15-.51-.39a1.58,1.58,0,0,1,.23.22l-.4-.51a1.53,1.53,0,0,1,.17.27l-.25-.6c0,.11.06.2.08.31l-.09-.67a2.06,2.06,0,0,1,0,.43l.09-.67a2.88,2.88,0,0,1-.11.42l.25-.6a1.51,1.51,0,0,1-.22.37l.39-.5a2.08,2.08,0,0,1-.34.32l.51-.39a2.82,2.82,0,0,1-.42.23l.6-.25a2.91,2.91,0,0,1-.58.15l.67-.09a3.47,3.47,0,0,1-.72,0l.67.09a3.65,3.65,0,0,1-.74-.19l.59.25a3.85,3.85,0,0,1-.76-.44l.51.39a3.64,3.64,0,0,1-.62-.62l.39.51a4.4,4.4,0,0,1-.39-.66l.25.59a3.08,3.08,0,0,1-.23-.84l.09.67a2.53,2.53,0,0,1,0-.55l-.09.66a1.58,1.58,0,0,1,.09-.31l-.26.6a1.14,1.14,0,0,1,.1-.19l-.39.51a.67.67,0,0,1,.14-.15l-.5.39a.71.71,0,0,1,.18-.12l-.59.26a1.92,1.92,0,0,1,.32-.09l-.66.09a4.61,4.61,0,0,1,1,0l-.66-.09a2.33,2.33,0,0,1,.44.1l-.6-.25a1.69,1.69,0,0,1,.29.17l-.51-.39.16.16-.39-.5a2.54,2.54,0,0,1,.16.28l-.25-.6a3.2,3.2,0,0,1,.07.33l-.09-.67a2.34,2.34,0,0,1,0,.46l.09-.66a3.22,3.22,0,0,1-.2.67l.25-.6a4,4,0,0,1-.48.8l.39-.5a4.12,4.12,0,0,1-.66.66l.51-.39a4.35,4.35,0,0,1-.8.48l.59-.25a3.38,3.38,0,0,1-.88.24l.66-.08h-.53l.66.09a2.7,2.7,0,0,1-.49-.12l.6.25a1.79,1.79,0,0,1-.38-.22l.5.39a2.91,2.91,0,0,1-.31-.3l.4.51a1.61,1.61,0,0,1-.17-.28l.25.6c0-.11-.07-.2-.1-.31l.09.67a1.55,1.55,0,0,1,0-.43l-.09.67a1.38,1.38,0,0,1,.08-.29l-.25.59a2.43,2.43,0,0,1,.26-.44l-.39.51a3.48,3.48,0,0,1,.48-.46l-.51.39a8.76,8.76,0,0,1,1.83-1l-.6.25a4.76,4.76,0,0,1,.91-.27l-.66.09a3,3,0,0,1,.67,0l-.66-.09a2.52,2.52,0,0,1,.54.14l-.6-.25a1.79,1.79,0,0,1,.38.22l-.5-.39.22.22-.39-.51.09.16-.25-.6a1.1,1.1,0,0,1,.06.26l-.09-.67v.09l.08-.67a.41.41,0,0,1,0,.16l.25-.6,0,.06.39-.5-.05.05.51-.39-.07,0a2.5,2.5,0,0,0,2.52,4.32,2.93,2.93,0,0,0,1.34-3.22,3.47,3.47,0,0,0-1.52-2.13,4.79,4.79,0,0,0-4.06-.47c-2.44.77-5.2,2.59-4.81,5.5a4,4,0,0,0,3.1,3.28,5.43,5.43,0,0,0,4.19-.89,6.59,6.59,0,0,0,2.47-3.25,3.86,3.86,0,0,0-1.51-4.57,5.19,5.19,0,0,0-3.94-.36,3.38,3.38,0,0,0-2.21,2.3,4.88,4.88,0,0,0,0,2.31,5.73,5.73,0,0,0,5.47,4.39,4.68,4.68,0,0,0,4-2.1,4,4,0,0,0-.41-4.69,4,4,0,0,0-4.15-1,5.24,5.24,0,0,0-3,2.7c-1.18,2.35-1.26,5.45.66,7.46a4.36,4.36,0,0,0,4.06,1.29,3.83,3.83,0,0,0,2.77-3.72,7.22,7.22,0,0,0-.8-3.47,4.69,4.69,0,0,0-3.08-2.43,17.07,17.07,0,0,0-3.19-.17,6.11,6.11,0,0,0-2,.1,3.42,3.42,0,0,0-2.26,2.25c-1,3,2.09,5.36,4.58,6.21s5.44,0,6.59-2.38a4.63,4.63,0,0,0-.08-4.21,4.07,4.07,0,0,0-3.66-2.12c-2.63.09-5.68,2.45-5.49,5.27a3.74,3.74,0,0,0,3.42,3.67,3.15,3.15,0,0,0,2.79-1.63,5,5,0,0,0,.62-2.11,5.74,5.74,0,0,0-2.89-5.44,4.9,4.9,0,0,0-3.87-.43,4,4,0,0,0-2.14,1.7,3.71,3.71,0,0,0-.4,2.71,3.75,3.75,0,0,0,3.88,2.66c1.12,0,2.24,0,3.36-.11s2.15-.16,3.22-.28a2.74,2.74,0,0,0,1.77-.73,2.52,2.52,0,0,0,.73-1.77,2.49,2.49,0,0,0-.73-1.77,2.41,2.41,0,0,0-1.77-.73Z" transform="translate(-101.4 -390.33)"/><path class="cls-1" d="M143.68,419.33c-.12.38.1-.24.11-.25-.14.32.12-.18.18-.21s-.17.17-.17.17.53-.32.2-.16a1,1,0,0,0-.23.12s.61-.21.24-.1c-.18.05-.34.11-.52.15a1.09,1.09,0,0,0-.26.05c.51-.19.5-.05.27,0a4.34,4.34,0,0,1-.51,0,1,1,0,0,1-.25,0s.68.14.27,0c-.12,0-.73-.24-.29-.06s.12.05,0,0,.32.25.27.22c-.27-.23.16.23.17.25-.2-.3.1.26.11.28-.13-.32,0,.21,0,.26,0,.49-.07.47,0,.24,0,.05-.27.54-.06.2-.12.19-.31.36,0,.09.08-.08.25-.33,0-.05s-.07.06.07,0l.28-.16c.22-.14-.21.09-.23.09.21,0,.41-.15.62-.2l.31-.07c.52-.13-.4,0-.1,0s.43,0,.65,0,.46.06.07,0,0,0,.06,0a5,5,0,0,1,.55.16c.38.11-.15-.06-.19-.09s.27.13.38.19l.43.28c.27.17-.39-.34-.16-.12l.22.19c.14.14.26.28.39.43s-.29-.43-.12-.16c.06.11.13.2.19.31l.14.25c.15.27-.11.05-.07-.2,0,.14.14.41.18.56s.05.23.08.34c.08.33,0-.48,0-.14,0,.11,0,.23,0,.35,0,.5-.08,0,0-.06s-.07.28-.08.33c-.06.33-.18,0,.09-.16a1.85,1.85,0,0,0-.3.51c0-.06.39-.43.11-.16l-.16.15c-.21.23.43-.27.16-.12-.06,0-.29.12-.32.18.15-.26.49-.14.19-.09-.46.07.14,0,.18,0a1.87,1.87,0,0,0-.33,0c-.36,0,.1-.16.18.05a5.6,5.6,0,0,0-.63-.17c-.25-.07-.13-.17.12.07a1.2,1.2,0,0,0-.3-.15,9.62,9.62,0,0,1-1.18-.73l-.27-.2s.48.42.15.11l-.5-.49c-.23-.23.25.42.11.14,0-.1-.18-.39,0,0s.05.12,0,0c.13.61,0,.46.05.26a1.47,1.47,0,0,1-.2.74c.18-.33-.16.2-.18.22.22-.28-.2.15-.22.17.3-.24-.47.13-.21.07.1,0,.73-.14.24-.08s.16,0,.26,0h.46a1.48,1.48,0,0,0,.3,0l-.3,0,.21.05c-.11,0-.39-.19-.47-.26s-.44-.57-.3-.32-.11-.49-.08-.17c0,.1,0,.44,0,0s0,0,0,.09,0,.25,0,.37a7.54,7.54,0,0,1,0,.82,2.49,2.49,0,0,0,0,.36s.11-.61,0-.12c0,.21-.08.41-.13.62a6.32,6.32,0,0,1-.18.62l0,.08c-.08.19-.08.19,0,0s.09-.21,0,0l-.07.13a1.92,1.92,0,0,0-.17.26s.34-.5.08-.15-.08-.21.16-.11l-.25.15s.5-.21.25-.13.55,0,.23,0c-.14,0-.38-.08,0,0a.82.82,0,0,1,.51.17l-.13-.08c.56.42.07.05-.07-.1a6.12,6.12,0,0,1-.41-.48c-.12-.15-.28-.19.08.11a1.71,1.71,0,0,1-.2-.27,6.65,6.65,0,0,1-.36-.56,2.72,2.72,0,0,1-.16-.3c.13.32.16.39.1.22a2.25,2.25,0,0,1-.08-.24,1.28,1.28,0,0,0-.07-.28c0,.09,0,.59,0,.24a1.31,1.31,0,0,0,0-.28c-.07.4-.08.51,0,.31a1.17,1.17,0,0,1,.05-.2c.06-.26.17-.07-.1.21a1,1,0,0,0,.14-.24c-.16.37-.3.37-.11.2-.34.24-.43.31-.26.21s.06-.05-.33.12c0,0,.22-.09.23-.06s-.73.06-.24,0a1.21,1.21,0,0,0,.19,0c-.44-.07-.56-.08-.37,0l.18.05s-.61-.31-.26-.1-.37-.35-.16-.14a.74.74,0,0,0,.13.12c-.24-.33-.31-.42-.21-.26a1,1,0,0,1,.1.17c-.05-.05-.19-.6-.13-.24,0-.14,0-.65,0-.23,0,.11,0,.41,0,0s0,0,0,0,.31-.55.1-.24c0,.08-.27.42,0,.06s.07-.09,0,0,.53-.4.15-.13c-.14.1-.47.14.25-.1-.39.13.54,0,.24,0-.12,0-.4,0,0,0s0,0,0,0,.62.31.28.1a1.7,1.7,0,0,1,.73.95,2.78,2.78,0,0,0-1.15-1.5,2.55,2.55,0,0,0-1.93-.25c-1.16.37-2.28,1.78-1.74,3.07a3.82,3.82,0,0,0,.89,1.5,3.86,3.86,0,0,0,1.48.91,4.14,4.14,0,0,0,2.65,0,4.65,4.65,0,0,0,3.11-4.31,4.38,4.38,0,0,0-8-2.43,5.38,5.38,0,0,0,0,5.31,11.33,11.33,0,0,0,1.41,2,5.27,5.27,0,0,0,1.76,1.49,4.58,4.58,0,0,0,5.75-1.77,9.16,9.16,0,0,0,1.29-4.83,7.52,7.52,0,0,0-.29-2.5,3.77,3.77,0,0,0-2.71-2.55,6.7,6.7,0,0,0-4.68.51,3.9,3.9,0,0,0-1.18,5.5,9.21,9.21,0,0,0,3.74,3.05,5.81,5.81,0,0,0,5.59,0,5.9,5.9,0,0,0,2.7-4.77,7.38,7.38,0,0,0-5.58-7.23,7.57,7.57,0,0,0-5.66.84c-1.95,1.22-3.24,3.77-1.81,5.89a5.16,5.16,0,0,0,5.15,1.88,5,5,0,0,0,4.41-3.32,2.5,2.5,0,1,0-4.82-1.33Z" transform="translate(-101.4 -390.33)"/><path class="cls-1" d="M114.83,436.14a41.79,41.79,0,0,0,.73,18.28c1.53,5.69,4.35,11.93,8.69,16a13.64,13.64,0,0,0,15.52,2.12c5.49-2.78,7.29-8.92,7.94-14.59a78.17,78.17,0,0,0-.34-23,2.53,2.53,0,0,0-3.07-1.75,2.56,2.56,0,0,0-1.75,3.08c1.09,5.9.89,11.95.48,17.91-.3,4.34-.56,9.69-4,12.82a8.54,8.54,0,0,1-10.59.38,20.06,20.06,0,0,1-4.66-6.1,35,35,0,0,1-3-6.86,36.26,36.26,0,0,1-1.14-17,2.56,2.56,0,0,0-1.74-3.07,2.52,2.52,0,0,0-3.08,1.74Z" transform="translate(-101.4 -390.33)"/><path class="cls-1" d="M113.17,420.23q-5-8.39-9.46-17.06c-.74-1.43-2.89-.17-2.16,1.26q4.47,8.69,9.46,17.06a1.25,1.25,0,0,0,2.16-1.26Z" transform="translate(-101.4 -390.33)"/><path class="cls-1" d="M118.59,420.53q-1.25-14.73-3.81-29.29c-.28-1.58-2.69-.91-2.41.66q2.49,14.24,3.72,28.63c.14,1.59,2.64,1.61,2.5,0Z" transform="translate(-101.4 -390.33)"/><path class="cls-1" d="M119.91,422.7l4.76-10.86a1.29,1.29,0,0,0-.45-1.71,1.26,1.26,0,0,0-1.71.44l-4.76,10.87a1.29,1.29,0,0,0,.45,1.71,1.26,1.26,0,0,0,1.71-.45Z" transform="translate(-101.4 -390.33)"/><path class="cls-1" d="M141.63,421.62a109.46,109.46,0,0,0-5.88-21.57c-.57-1.49-3-.84-2.41.66a109.84,109.84,0,0,1,5.88,21.57c.26,1.58,2.67.91,2.41-.66Z" transform="translate(-101.4 -390.33)"/><path class="cls-1" d="M146.82,423.9a160.94,160.94,0,0,1-1.83-20c-.05-1.61-2.55-1.61-2.5,0a163.79,163.79,0,0,0,1.92,20.62c.25,1.59,2.66.91,2.41-.66Z" transform="translate(-101.4 -390.33)"/><path class="cls-1" d="M149.54,423.31q3.86-11.7,8.08-23.25c.55-1.51-1.86-2.17-2.41-.66Q151,411,147.13,422.64c-.51,1.53,1.9,2.19,2.41.67Z" transform="translate(-101.4 -390.33)"/></svg>